<svg xmlns="http://www.w3.org/2000/svg" width="100%" height="100%"  xmlns:xlink="http://www.w3.org/1999/xlink" viewBox="10.125 168.706 241.875 196.964" preserveAspectRatio="xMidYMid meet"><rect id="svgEditorBackground" x="10.125" y="168.75" width="241.875" height="196.875" style="fill: none; stroke: none;"/>
      <path fill="red" d="M131.0625 334.125 Q111.9375 334.125 92.8125 332.1562 Q73.6875 330.1875 50.625 323.7188 Q27.5625 317.25 14.0625 305.4375 L10.125 301.5 L10.125 245.8125 L11.8125 230.625 Q27.5625 218.8125 50.625 212.3438 Q73.6875 205.875 92.8125 203.9062 Q111.9375 201.9375 131.0625 201.9375 Q150.1875 201.9375 169.3125 203.9062 Q188.4375 205.875 211.5 212.3438 Q234.5625 218.8125 250.3125 230.625 L252 245.8125 L252 301.5 L248.0625 305.4375 Q234.5625 317.25 211.5 323.7188 Q188.4375 330.1875 169.3125 332.1562 Q150.1875 334.125 131.0625 334.125 ZM131.0625 329.625 Q150.1875 329.625 169.3125 327.6562 Q188.4375 325.6875 211.5 319.2188 Q234.5625 312.75 245.8125 302.0625 L247.5 298.6875 L247.5 247.5 L245.8125 234 Q234.5625 223.3125 211.5 216.8438 Q188.4375 210.375 169.3125 208.4062 Q150.1875 206.4375 131.0625 206.4375 Q111.9375 206.4375 92.8125 208.4062 Q73.6875 210.375 50.625 216.8438 Q27.5625 223.3125 16.3125 234 L14.625 247.5 L14.625 298.6875 L16.3125 302.0625 Q27.5625 312.75 50.625 319.2188 Q73.6875 325.6875 92.8125 327.6562 Q111.9375 329.625 131.0625 329.625 ZM131.0625 315.5625 Q112.7812 315.5625 97.875 314.1562 L97.875 288.5625 L86.625 287.4375 L86.625 312.75 L75.375 311.0625 L75.375 285.75 L64.125 283.2188 L64.125 308.8125 L52.875 305.7188 L52.875 280.4062 L41.625 277.0312 L41.625 302.625 L30.375 297.5625 L30.375 264.375 Q39.375 268.875 50.625 271.9688 Q73.6875 278.4375 92.8125 280.4062 Q111.9375 282.375 131.0625 282.375 Q150.1875 282.375 169.3125 280.4062 Q188.4375 278.4375 211.5 271.9688 Q222.75 268.875 231.75 264.375 L231.75 297.5625 Q222.75 302.0625 211.5 305.1562 Q188.4375 311.625 169.3125 313.5938 Q150.1875 315.5625 131.0625 315.5625 ZM131.0625 270.5625 Q111.9375 270.5625 92.8125 268.5938 Q73.6875 266.625 50.625 260.1562 Q42.1875 257.0625 33.75 249.1875 L33.75 239.625 Q39.375 233.4375 58.2188 227.5312 Q77.0625 221.625 96.4688 219.6562 Q115.875 217.6875 131.0625 217.6875 Q146.25 217.6875 165.6562 219.6562 Q185.0625 221.625 203.9062 227.5312 Q222.75 233.4375 228.375 239.625 L228.375 249.1875 Q219.9375 257.0625 211.5 260.1562 Q188.4375 266.625 169.3125 268.5938 Q150.1875 270.5625 131.0625 270.5625 Z"/>
</svg>